# xmcd
#
# Track frame offsets:
# 150
# 30807
# 52654
# 80585
# 104606
# 121119
# 150445
# 175983
# 193089
# 213501
# 236845
# 264219
# 290297
#
# Disc length: 4392 seconds
#
# Revision: 0
# Processed by: cddbd v1.5.2PL0 Copyright (c) Steve Scherf et al.
# Submitted via: Audion 3.0.2 (http://www.panic.com/audion/)
#
DISCID=a311260d
DTITLE=Rusted Root - Rusted Root Live
DYEAR=1900
DGENRE=
TTITLE0=Voodoo
TTITLE1=Rain
TTITLE2=Martyr
TTITLE3=Lost in the Crowd
TTITLE4=Welcome to My Party
TTITLE5=Cat Turned Blue
TTITLE6=Women Got My Money
TTITLE7=Weave
TTITLE8=Powderfingers
TTITLE9=Blue Diamonds
TTITLE10=Heaven
TTITLE11=Send Me On My Way
TTITLE12=Ecstatic Drums
EXTD=
EXTT0=
EXTT1=
EXTT2=
EXTT3=
EXTT4=
EXTT5=
EXTT6=
EXTT7=
EXTT8=
EXTT9=
EXTT10=
EXTT11=
EXTT12=
PLAYORDER=
